<svg width="128" height="128" viewBox="0 0 128 128" fill="none" xmlns="http://www.w3.org/2000/svg">
<circle cx="64" cy="64" r="64" fill="#FCEB3C"/>
<path d="M34.1356 89.139C31.5879 86.6419 29.3521 83.8278 27.4919 80.7606C20.6239 85.5388 14.7367 91.6284 10.1927 98.6667C12.2687 101.882 14.6252 104.9 17.2274 107.685C21.3178 100.241 27.1333 93.88 34.1356 89.139Z" fill="#FAD935"/>
<path d="M100.508 80.7607C98.6478 83.8279 96.4119 86.642 93.8643 89.1391C100.866 93.8801 106.682 100.242 110.772 107.685C113.375 104.9 115.731 101.882 117.807 98.6667C113.263 91.6285 107.376 85.539 100.508 80.7607Z" fill="#FAD935"/>
<path fill-rule="evenodd" clip-rule="evenodd" d="M64 90.6667C81.6731 90.6667 96 76.3398 96 58.6667C96 40.9936 81.6731 26.6667 64 26.6667C46.3269 26.6667 32 40.9936 32 58.6667C32 76.3398 46.3269 90.6667 64 90.6667ZM64 101.333C87.5642 101.333 106.667 82.2308 106.667 58.6667C106.667 35.1025 87.5642 16 64 16C40.4359 16 21.3333 35.1025 21.3333 58.6667C21.3333 82.2308 40.4359 101.333 64 101.333Z" fill="#FAD935"/>
<path d="M58.6667 48C58.6667 50.9455 56.2789 53.3333 53.3333 53.3333C50.3878 53.3333 48 50.9455 48 48C48 45.0545 50.3878 42.6667 53.3333 42.6667C56.2789 42.6667 58.6667 45.0545 58.6667 48Z" fill="#FAD935"/>
<path d="M80 48C80 50.9455 77.6122 53.3333 74.6667 53.3333C71.7212 53.3333 69.3333 50.9455 69.3333 48C69.3333 45.0545 71.7212 42.6667 74.6667 42.6667C77.6122 42.6667 80 45.0545 80 48Z" fill="#FAD935"/>
<path fill-rule="evenodd" clip-rule="evenodd" d="M51.3483 65.8604C53.2659 64.7637 55.7096 65.4293 56.8063 67.347C57.7311 68.9641 60.3147 70.666 64.0007 70.666C67.6867 70.666 70.2702 68.9641 71.1951 67.347C72.2918 65.4293 74.7354 64.7637 76.6531 65.8604C78.5708 66.9571 79.2363 69.4008 78.1396 71.3185C75.4737 75.9801 69.8567 78.666 64.0007 78.666C58.1447 78.666 52.5277 75.9801 49.8617 71.3185C48.765 69.4008 49.4306 66.9571 51.3483 65.8604Z" fill="#FAD935"/>
</svg>
